<svg width="40" height="40" viewBox="0 0 40 40" fill="none" xmlns="http://www.w3.org/2000/svg">
<path d="M0 20C0 8.95431 8.95431 0 20 0V0C31.0457 0 40 8.95431 40 20V20C40 31.0457 31.0457 40 20 40V40C8.95431 40 0 31.0457 0 20V20Z" fill="white"/>
<path fill-rule="evenodd" clip-rule="evenodd" d="M18.7582 13.5C15.8542 13.5 13.5 15.8542 13.5 18.7582C13.5 21.6623 15.8542 24.0165 18.7582 24.0165C21.6623 24.0165 24.0165 21.6623 24.0165 18.7582C24.0165 15.8542 21.6623 13.5 18.7582 13.5ZM12 18.7582C12 15.0258 15.0258 12 18.7582 12C22.4907 12 25.5165 15.0258 25.5165 18.7582C25.5165 20.4022 24.9295 21.909 23.9538 23.0806L28.201 27.3279C28.4939 27.6208 28.4939 28.0957 28.201 28.3885C27.9082 28.6814 27.4333 28.6814 27.1404 28.3885L22.8723 24.1204C21.7328 24.996 20.3063 25.5165 18.7582 25.5165C15.0258 25.5165 12 22.4907 12 18.7582Z" fill="#131313"/>
</svg>
