<svg width="21" height="21" viewBox="0 0 21 21" fill="none" xmlns="http://www.w3.org/2000/svg">
<path d="M6.83564 0.829233C6.91741 0.82877 6.99918 0.828266 7.08095 0.827723C7.25123 0.826856 7.42148 0.82679 7.59176 0.82726C7.7633 0.82765 7.93476 0.826788 8.10629 0.824684C10.6524 0.793783 10.6524 0.793783 11.2206 1.2779C11.3138 1.38446 11.3719 1.49416 11.4345 1.62023C11.4567 1.66437 11.479 1.70851 11.5019 1.75399C11.5519 1.86618 11.5519 1.86618 11.5519 1.9499C11.5891 1.96136 11.6263 1.97282 11.6645 1.98462C11.8011 2.03122 11.9261 2.08548 12.0558 2.14794C12.1274 2.18236 12.1274 2.18236 12.2005 2.21748C12.2522 2.24252 12.3038 2.26758 12.3554 2.29266C12.3818 2.30546 12.4082 2.31825 12.4354 2.33143C12.5754 2.39931 12.7153 2.4674 12.8551 2.53565C12.9977 2.60521 13.1407 2.67407 13.2837 2.74276C13.3952 2.79645 13.5064 2.85069 13.6175 2.90506C13.6951 2.94285 13.773 2.98008 13.8509 3.01729C14.6841 3.42787 15.3217 4.0258 15.6272 4.90391C15.7047 5.14967 15.7419 5.36792 15.7393 5.62605C15.7389 5.67468 15.7385 5.7233 15.7381 5.7734C15.7374 5.82868 15.7374 5.82868 15.7366 5.88509C15.7897 5.88471 15.8428 5.88434 15.8976 5.88396C16.3977 5.88057 16.8979 5.87806 17.398 5.87641C17.6552 5.87554 17.9123 5.87435 18.1694 5.87245C18.4175 5.87064 18.6656 5.86963 18.9137 5.8692C19.0084 5.86889 19.1031 5.86828 19.1978 5.86738C19.3304 5.86617 19.4628 5.866 19.5953 5.86608C19.6346 5.86547 19.674 5.86487 19.7145 5.86425C19.9777 5.86593 19.9777 5.86593 20.1167 5.95773C20.1862 6.06616 20.198 6.12174 20.1961 6.24894C20.196 6.28789 20.1958 6.32684 20.1957 6.36697C20.1948 6.40913 20.1939 6.45129 20.193 6.49473C20.193 6.58614 20.193 6.67755 20.1931 6.76896C20.1922 6.91138 20.1909 7.05376 20.1888 7.19617C20.1821 7.73594 20.2151 8.21617 20.3694 8.73593C20.5354 9.3431 20.5609 9.91386 20.5558 10.5393C20.556 10.6518 20.5563 10.7643 20.5567 10.8768C20.5575 11.1471 20.5568 11.4174 20.5555 11.6878C20.554 12.0033 20.5541 12.3187 20.5542 12.6342C20.5544 13.1968 20.5531 13.7593 20.551 14.3219C20.549 14.8671 20.5481 15.4122 20.5484 15.9574C20.5488 16.6485 20.5482 17.3397 20.5468 18.0308C20.5463 18.2506 20.5463 18.4703 20.5463 18.6901C20.5463 18.9572 20.5457 19.2243 20.5443 19.4915C20.5436 19.6277 20.5433 19.7639 20.5435 19.9001C20.5437 20.0475 20.5428 20.195 20.5417 20.3424C20.5421 20.4072 20.5421 20.4072 20.5426 20.4733C20.5387 20.7603 20.5387 20.7603 20.4424 20.8988C20.2972 20.987 20.1522 20.9793 19.9867 20.9777C19.9503 20.978 19.9139 20.9783 19.8764 20.9786C19.7561 20.9793 19.6359 20.9788 19.5156 20.9782C19.432 20.9784 19.3485 20.9785 19.2649 20.9787C19.0897 20.979 18.9145 20.9786 18.7394 20.9778C18.5148 20.9769 18.2902 20.9774 18.0656 20.9784C17.893 20.979 17.7204 20.9788 17.5478 20.9784C17.465 20.9783 17.3822 20.9784 17.2994 20.9788C17.1836 20.9792 17.068 20.9786 16.9523 20.9777C16.918 20.978 16.8837 20.9783 16.8485 20.9787C16.7052 20.9766 16.6132 20.9732 16.4982 20.8855C16.4059 20.7713 16.3894 20.6996 16.3702 20.5561C16.364 20.5115 16.3577 20.4669 16.3512 20.421C16.3457 20.3765 16.3401 20.332 16.3344 20.2862C16.3265 20.2283 16.3265 20.2283 16.3183 20.1692C16.3026 20.0527 16.288 19.9361 16.2738 19.8194C16.2683 19.7758 16.2629 19.7322 16.2573 19.6872C16.2396 19.5448 16.2221 19.4023 16.2047 19.2599C16.1923 19.16 16.18 19.0602 16.1677 18.9603C16.142 18.7519 16.1164 18.5434 16.0908 18.335C16.0581 18.0683 16.0251 17.8016 15.992 17.5349C15.9665 17.329 15.9412 17.1232 15.916 16.9173C15.9039 16.819 15.8917 16.7206 15.8795 16.6223C15.8625 16.4849 15.8457 16.3474 15.8289 16.21C15.8213 16.1496 15.8213 16.1496 15.8136 16.0879C15.787 15.8668 15.7744 15.6527 15.7793 15.43C15.7511 15.43 15.7229 15.43 15.6939 15.43C15.6922 15.4661 15.6906 15.5022 15.6888 15.5394C15.6593 16.0805 15.5951 16.6167 15.5301 17.1546C15.518 17.2553 15.506 17.3561 15.4939 17.4568C15.4687 17.6666 15.4433 17.8764 15.4179 18.0861C15.3853 18.3548 15.3533 18.6234 15.3215 18.8922C15.2969 19.0996 15.2718 19.3071 15.2466 19.5145C15.2346 19.6136 15.2228 19.7127 15.2111 19.8118C15.1949 19.95 15.178 20.0881 15.1609 20.2262C15.1539 20.2873 15.1539 20.2873 15.1468 20.3496C15.1201 20.5605 15.0866 20.7309 14.968 20.9141C14.8309 20.9814 14.6814 20.9629 14.5307 20.9634C14.4943 20.9637 14.4579 20.964 14.4204 20.9642C14.2997 20.9651 14.179 20.9656 14.0583 20.966C13.9965 20.9662 13.9965 20.9662 13.9335 20.9665C13.7157 20.9674 13.4979 20.968 13.2801 20.9684C13.0548 20.9688 12.8296 20.9703 12.6043 20.9719C12.4314 20.973 12.2584 20.9734 12.0854 20.9735C12.0024 20.9737 11.9193 20.9742 11.8363 20.975C11.7201 20.976 11.604 20.976 11.4879 20.9757C11.4363 20.9765 11.4363 20.9765 11.3837 20.9773C11.2427 20.976 11.1473 20.9716 11.0306 20.8904C10.9285 20.7545 10.9313 20.6398 10.9347 20.4775C10.9347 20.4464 10.9347 20.4154 10.9346 20.3834C10.9348 20.281 10.9361 20.1786 10.9374 20.0762C10.9377 20.0051 10.938 19.934 10.9382 19.8629C10.9388 19.676 10.9405 19.4891 10.9424 19.3022C10.9441 19.1113 10.9449 18.9205 10.9458 18.7297C10.9476 18.3554 10.9505 17.9812 10.9541 17.6069C10.8923 17.6071 10.8923 17.6071 10.8292 17.6074C9.82711 17.6111 8.825 17.6138 7.82288 17.6156C7.33827 17.6164 6.85367 17.6176 6.36906 17.6195C5.94675 17.6212 5.52445 17.6223 5.10214 17.6227C4.87846 17.6229 4.65479 17.6234 4.43111 17.6246C4.22068 17.6257 4.01026 17.6261 3.79982 17.6258C3.7225 17.6259 3.64517 17.6262 3.56785 17.6269C3.46243 17.6277 3.35706 17.6275 3.25164 17.627C3.2209 17.6275 3.19017 17.628 3.1585 17.6285C3.02049 17.6269 2.93771 17.6143 2.82189 17.5387C2.73503 17.4088 2.73449 17.3264 2.73499 17.1714C2.73476 17.1162 2.73452 17.061 2.73428 17.0042C2.73489 16.9431 2.73551 16.882 2.73614 16.8209C2.73619 16.7566 2.73616 16.6922 2.73607 16.6278C2.73602 16.4531 2.73702 16.2784 2.73821 16.1037C2.73928 15.9211 2.73938 15.7386 2.73959 15.556C2.74012 15.2102 2.74152 14.8645 2.74323 14.5187C2.74514 14.1251 2.74608 13.7315 2.74694 13.3378C2.74872 12.5281 2.75173 11.7184 2.75553 10.9087C2.72381 10.9091 2.6921 10.9095 2.65942 10.9099C2.36036 10.9132 2.0613 10.9158 1.76223 10.9174C1.60848 10.9183 1.45474 10.9195 1.30099 10.9214C1.15259 10.9232 1.0042 10.9242 0.855787 10.9246C0.771671 10.9251 0.687562 10.9264 0.603455 10.9277C0.526533 10.9277 0.526533 10.9277 0.448057 10.9277C0.402922 10.9281 0.357787 10.9285 0.311284 10.9289C0.160761 10.9031 0.111428 10.8621 0.0226744 10.7413C0.00129959 10.6377 0.00129959 10.6377 0.00127251 10.5195C0.000852578 10.4745 0.000432652 10.4296 0 10.3833C0.000412831 10.3342 0.000825662 10.2851 0.001251 10.2345C0.00102029 10.1826 0.000789579 10.1307 0.000551875 10.0772C0.000109079 9.93493 0.000433716 9.79265 0.00113763 9.65033C0.00173 9.501 0.00145279 9.35167 0.00130248 9.20233C0.00118705 8.95119 0.0017625 8.70006 0.00275221 8.44893C0.00388436 8.15967 0.00396463 7.87042 0.00346176 7.58116C0.00299905 7.30207 0.0032678 7.02298 0.00386964 6.74389C0.00411387 6.62559 0.00411326 6.50729 0.00390939 6.38899C0.00366499 6.22298 0.00449392 6.05698 0.00542102 5.89097C0.00522879 5.84254 0.00503657 5.79412 0.00483852 5.74422C0.00891226 5.30222 0.097121 4.89429 0.305568 4.50097C0.320385 4.47269 0.335202 4.44441 0.350469 4.41527C0.779496 3.62468 1.4507 3.25804 2.23736 2.87374C2.38055 2.80353 2.52338 2.73263 2.66626 2.66182C2.87115 2.56033 3.07622 2.4592 3.28129 2.35807C3.32212 2.3379 3.36295 2.31773 3.40502 2.29695C3.52187 2.2393 3.63883 2.18189 3.75584 2.12455C3.80935 2.0981 3.80935 2.0981 3.86394 2.07111C3.8967 2.05511 3.92947 2.03911 3.96322 2.02263C3.99193 2.00853 4.02064 1.99443 4.05022 1.9799C4.12196 1.9499 4.12196 1.9499 4.20736 1.9499C4.22058 1.90198 4.22058 1.90198 4.23405 1.85309C4.44697 1.29329 4.44697 1.29329 4.65923 1.1787C4.77692 1.14256 4.8939 1.11665 5.01432 1.09121C5.10744 1.07 5.19889 1.04525 5.2908 1.01947C5.81217 0.875993 6.29572 0.828523 6.83564 0.829233ZM6.51321 1.53127C6.51321 1.75231 6.51321 1.97335 6.51321 2.20108C7.41506 2.20108 8.3169 2.20108 9.24607 2.20108C9.24607 1.98004 9.24607 1.759 9.24607 1.53127C8.34423 1.53127 7.44239 1.53127 6.51321 1.53127ZM9.92929 1.65686C9.92978 1.69651 9.93028 1.73617 9.93079 1.77703C9.93183 1.92611 9.93132 2.07503 9.92981 2.2241C9.92947 2.28825 9.92972 2.3524 9.9306 2.41654C9.93546 2.80063 9.9179 3.07941 9.63403 3.37216C9.60464 3.40016 9.57526 3.42815 9.54498 3.45699C9.50352 3.50442 9.46258 3.55228 9.42238 3.60074C9.36814 3.66299 9.36814 3.66299 9.31279 3.72649C9.13589 3.93019 8.96121 4.13532 8.79121 4.34463C8.71721 4.43107 8.64368 4.50975 8.56269 4.58928C8.3527 4.80147 8.19779 4.9608 8.18907 5.2678C8.19311 5.39088 8.20422 5.51194 8.22125 5.6339C8.45998 5.56526 8.67368 5.45934 8.89479 5.34969C8.93424 5.33029 8.97368 5.3109 9.01432 5.29092C9.13969 5.22923 9.26494 5.1673 9.39019 5.10538C9.47542 5.06339 9.56065 5.02141 9.64589 4.97946C9.85432 4.87683 10.0626 4.77401 10.2709 4.67104C10.2715 4.63238 10.2721 4.59373 10.2728 4.5539C10.2754 4.41041 10.2786 4.26695 10.2821 4.12347C10.2835 4.06139 10.2847 3.9993 10.2857 3.93721C10.2871 3.84792 10.2894 3.75869 10.2917 3.66942C10.2929 3.61571 10.294 3.562 10.2951 3.50666C10.3136 3.37327 10.3136 3.37327 10.3654 3.2933C10.4669 3.23259 10.5411 3.22962 10.6597 3.22625C10.7017 3.22477 10.7436 3.22329 10.7869 3.22176C10.8306 3.22081 10.8744 3.21987 10.9194 3.21889C10.9636 3.21746 11.0079 3.21603 11.0534 3.21456C11.1627 3.21111 11.2719 3.20821 11.3811 3.20581C11.2906 2.92559 11.1642 2.6669 11.0342 2.40255C11.0109 2.35283 10.9877 2.3031 10.9638 2.25186C10.8313 1.95931 10.8313 1.95931 10.5808 1.77509C10.4944 1.75371 10.4944 1.75371 10.399 1.74058C10.3574 1.73237 10.3158 1.72416 10.2729 1.7157C10.1586 1.69389 10.0443 1.67448 9.92929 1.65686ZM5.06138 1.82431C4.88569 2.02692 4.78356 2.27835 4.6781 2.52093C4.6183 2.65604 4.54927 2.78493 4.47958 2.91538C4.4019 3.05441 4.4019 3.05441 4.37817 3.20581C4.41985 3.20673 4.41985 3.20673 4.46237 3.20766C4.58823 3.21078 4.71404 3.21483 4.83987 3.21889C4.8836 3.21984 4.92734 3.22078 4.97239 3.22176C5.03535 3.22398 5.03535 3.22398 5.09958 3.22625C5.13827 3.22735 5.17695 3.22845 5.21681 3.22958C5.31759 3.24768 5.31759 3.24768 5.3939 3.2933C5.47347 3.41615 5.46454 3.52513 5.46754 3.66942C5.46869 3.71236 5.46869 3.71236 5.46986 3.75617C5.47218 3.84745 5.47362 3.93871 5.47505 4.03C5.47646 4.09195 5.47794 4.15391 5.47947 4.21585C5.4831 4.36757 5.48595 4.5193 5.48839 4.67104C5.76645 4.8084 6.04463 4.9455 6.32292 5.08242C6.41763 5.12906 6.51232 5.17576 6.60698 5.22252C6.74278 5.2896 6.87868 5.35646 7.01462 5.42328C7.05714 5.44434 7.09967 5.4654 7.14348 5.4871C7.1828 5.50638 7.22212 5.52565 7.26263 5.54552C7.29733 5.56262 7.33204 5.57973 7.36779 5.59735C7.45022 5.63952 7.45022 5.63952 7.53804 5.6339C7.5864 5.24601 7.5864 5.24601 7.46598 4.88723C7.36608 4.78214 7.26102 4.68511 7.15373 4.58731C7.09017 4.51423 7.0279 4.44006 6.96691 4.36491C6.8645 4.24076 6.76164 4.11721 6.65583 3.99583C6.62626 3.96189 6.62626 3.96189 6.59609 3.92728C6.54105 3.8643 6.48585 3.80144 6.43065 3.73859C6.41149 3.71538 6.39234 3.69218 6.3726 3.66826C6.31456 3.60004 6.25348 3.53429 6.19146 3.46951C5.85291 3.10001 5.8121 2.79896 5.82466 2.31359C5.82475 2.24952 5.82464 2.18544 5.82433 2.12136C5.824 1.96646 5.82626 1.81172 5.83 1.65686C5.56174 1.65686 5.28982 1.67592 5.06138 1.82431ZM6.68402 2.8709C6.79447 3.05234 6.79447 3.05234 6.92321 3.21268C6.94396 3.23611 6.96472 3.25954 6.9861 3.28367C7.00795 3.30806 7.0298 3.33244 7.05231 3.35757C7.09822 3.40943 7.14409 3.46132 7.18992 3.51325C7.21261 3.53894 7.23529 3.56462 7.25867 3.59109C7.45869 3.81953 7.65431 4.05219 7.83694 4.29427C7.9956 4.24242 8.03314 4.18165 8.13585 4.05355C8.16959 4.01205 8.20333 3.97055 8.2381 3.9278C8.25608 3.90566 8.27406 3.88353 8.29258 3.86073C8.3901 3.74251 8.49139 3.62745 8.59222 3.51194C8.89694 3.21526 8.89694 3.21526 9.07527 2.8709C8.28616 2.8709 7.49704 2.8709 6.68402 2.8709ZM3.19455 3.19289C3.16157 3.20892 3.12858 3.22496 3.09459 3.24147C3.02448 3.27563 2.95441 3.30988 2.88439 3.34421C2.77868 3.39594 2.67271 3.44713 2.56672 3.49829C1.78619 3.87813 1.1413 4.29845 0.828747 5.13442C0.68393 5.60887 0.69403 6.1154 0.697549 6.60576C0.697709 6.67244 0.69783 6.73912 0.697915 6.80581C0.698237 6.97903 0.699072 7.15224 0.700025 7.32546C0.701064 7.53452 0.701446 7.74358 0.701943 7.95264C0.702763 8.26819 0.704403 8.58372 0.705889 8.89927C1.38227 8.89927 2.05865 8.89927 2.75553 8.89927C2.75713 8.74358 2.75873 8.58789 2.76037 8.42748C2.76234 8.27702 2.76453 8.12655 2.76674 7.97609C2.76816 7.87137 2.76936 7.76664 2.77033 7.66191C2.77176 7.51153 2.77399 7.36119 2.77638 7.21082C2.77666 7.16385 2.77693 7.11688 2.77721 7.06849C2.77806 7.02492 2.7789 6.98134 2.77977 6.93645C2.78048 6.87886 2.78048 6.87886 2.78121 6.82011C2.80137 6.70434 2.83186 6.6668 2.92634 6.59677C3.00907 6.58009 3.00907 6.58009 3.09714 6.58107C3.14074 6.58058 3.14074 6.58058 3.18521 6.58009C3.29645 6.60252 3.32771 6.63327 3.39605 6.72236C3.41451 6.84422 3.41451 6.84422 3.4179 6.99104C3.41941 7.04352 3.42093 7.096 3.42249 7.15007C3.42393 7.23235 3.42393 7.23235 3.4254 7.3163C3.42682 7.3722 3.42829 7.4281 3.42982 7.484C3.43335 7.62084 3.4363 7.75768 3.43875 7.89454C3.48647 7.89491 3.48647 7.89491 3.53515 7.89529C3.83486 7.89771 4.13456 7.90072 4.43426 7.90441C4.58834 7.90628 4.74242 7.90792 4.89651 7.90904C5.0452 7.91013 5.19387 7.91182 5.34254 7.91393C5.42691 7.91497 5.51129 7.91539 5.59566 7.91579C5.67259 7.91704 5.67259 7.91704 5.75107 7.9183C5.7963 7.91877 5.84153 7.91923 5.88813 7.91971C6.0008 7.9364 6.0008 7.9364 6.07943 7.97843C6.16013 8.11472 6.14666 8.25915 6.14548 8.41244C6.14571 8.44819 6.14593 8.48394 6.14616 8.52077C6.14673 8.63909 6.14635 8.7574 6.14592 8.87572C6.14601 8.95784 6.14613 9.03995 6.14629 9.12207C6.14648 9.29423 6.1462 9.46638 6.14561 9.63855C6.14488 9.85943 6.1453 10.0803 6.14606 10.3012C6.14653 10.4708 6.14638 10.6403 6.14605 10.8099C6.14596 10.8914 6.14607 10.9728 6.14637 11.0543C6.14669 11.1681 6.1462 11.2818 6.14548 11.3956C6.14574 11.4294 6.146 11.4632 6.14627 11.498C6.14367 11.7211 6.14367 11.7211 6.07943 11.8296C5.96733 11.8895 5.87857 11.8884 5.75107 11.8897C5.69907 11.8905 5.64707 11.8914 5.59349 11.8922C5.53883 11.8925 5.48416 11.8927 5.42784 11.893C5.37761 11.8937 5.32737 11.8944 5.27561 11.8951C5.08767 11.8975 4.89972 11.8989 4.71177 11.9004C4.29167 11.9047 3.87158 11.909 3.43875 11.9135C3.43875 13.5713 3.43875 15.2291 3.43875 16.9371C4.79151 16.9371 6.14428 16.9371 7.53804 16.9371C7.53804 13.4695 7.53804 10.002 7.53804 6.42931C6.66438 6.00105 5.79071 5.57278 4.89058 5.13154C4.83099 5.01469 4.83857 4.91376 4.83437 4.78322C4.83258 4.73061 4.83079 4.67799 4.82895 4.62378C4.82727 4.56857 4.82559 4.51337 4.82386 4.45649C4.82201 4.4004 4.82015 4.34431 4.81827 4.28822C4.81373 4.15069 4.80937 4.01317 4.80518 3.87563C4.76963 3.87502 4.73408 3.87441 4.69746 3.87378C4.56542 3.87122 4.43341 3.86812 4.30139 3.86464C4.21621 3.86257 4.13101 3.86112 4.04582 3.85969C3.99229 3.8582 3.93876 3.85672 3.88361 3.85519C3.83419 3.85409 3.78477 3.853 3.73385 3.85187C3.60955 3.83377 3.60955 3.83377 3.52937 3.77961C3.44556 3.65469 3.46005 3.51558 3.48145 3.37327C3.5455 3.23198 3.5455 3.23198 3.60955 3.12209C3.60955 3.09446 3.60955 3.06683 3.60955 3.03836C3.45878 3.03836 3.32749 3.12792 3.19455 3.19289ZM12.1497 3.03836C12.2053 3.20915 12.2053 3.20915 12.2778 3.37327C12.2977 3.68045 12.2977 3.68045 12.23 3.77479C12.1134 3.86047 12.0202 3.85198 11.8757 3.85519C11.8222 3.85667 11.7686 3.85816 11.7135 3.85969C11.6575 3.86063 11.6016 3.86158 11.5439 3.86255C11.4869 3.86394 11.4299 3.86538 11.3729 3.86688C11.2333 3.87034 11.0937 3.87323 10.9541 3.87563C10.9535 3.91048 10.9529 3.94533 10.9522 3.98124C10.9496 4.11069 10.9464 4.24011 10.9429 4.36954C10.9408 4.45305 10.9393 4.53658 10.9378 4.6201C10.9363 4.67258 10.9348 4.72506 10.9333 4.77913C10.9321 4.82758 10.931 4.87603 10.9299 4.92595C10.9114 5.04781 10.9114 5.04781 10.7833 5.1734C9.93783 5.58785 9.09235 6.0023 8.22125 6.42931C8.22125 9.89688 8.22125 13.3644 8.22125 16.9371C9.12309 16.9371 10.0249 16.9371 10.9541 16.9371C10.9538 16.7137 10.9536 16.4903 10.9533 16.2601C10.9526 15.5181 10.9536 14.776 10.9553 14.0339C10.9564 13.5845 10.9569 13.135 10.956 12.6856C10.9553 12.2932 10.9556 11.9009 10.9572 11.5086C10.958 11.3014 10.9583 11.0942 10.9573 10.887C10.9536 10.0355 10.9697 9.25739 11.2284 8.43806C11.3636 7.99189 11.3335 7.51573 11.3277 7.05465C11.3269 6.91152 11.3266 6.76841 11.3269 6.62528C11.327 6.53759 11.3264 6.4499 11.3251 6.36222C11.3249 6.32327 11.3248 6.28432 11.3247 6.24419C11.3243 6.21007 11.3238 6.17596 11.3234 6.14081C11.3384 6.05254 11.3384 6.05254 11.3821 5.9789C11.5151 5.89704 11.6541 5.90857 11.8064 5.90885C11.8583 5.90821 11.8583 5.90821 11.9112 5.90756C12.0256 5.90629 12.1399 5.90591 12.2543 5.90553C12.3336 5.90482 12.4129 5.90406 12.4922 5.90325C12.7009 5.90126 12.9096 5.90001 13.1183 5.89892C13.3312 5.89767 13.5442 5.89572 13.7571 5.89384C14.175 5.89023 14.5928 5.88741 15.0107 5.88509C15.0115 5.81129 15.0121 5.73749 15.0126 5.66369C15.0129 5.62259 15.0133 5.58149 15.0136 5.53915C14.9997 4.99416 14.6284 4.48833 14.2421 4.12681C13.9931 3.92035 13.7206 3.7738 13.4308 3.62968C13.3664 3.59728 13.3664 3.59728 13.3008 3.56423C13.1735 3.50025 13.0459 3.43673 12.9184 3.37327C12.8473 3.33763 12.7763 3.30198 12.7053 3.26632C12.6438 3.23564 12.5823 3.20501 12.5207 3.17441C12.4927 3.16039 12.4646 3.14637 12.4357 3.13192C12.2994 3.06103 12.2994 3.06103 12.1497 3.03836ZM11.9789 6.5549C11.9789 6.99698 11.9789 7.43906 11.9789 7.89454C12.2044 7.89454 12.4299 7.89454 12.6621 7.89454C12.6621 7.45246 12.6621 7.01038 12.6621 6.5549C12.4367 6.5549 12.2112 6.5549 11.9789 6.5549ZM13.3454 6.5549C13.3454 6.99698 13.3454 7.43906 13.3454 7.89454C13.5708 7.89454 13.7963 7.89454 14.0286 7.89454C14.0286 7.45246 14.0286 7.01038 14.0286 6.5549C13.8031 6.5549 13.5777 6.5549 13.3454 6.5549ZM14.7118 6.5549C14.7118 6.99698 14.7118 7.43906 14.7118 7.89454C14.9373 7.89454 15.1627 7.89454 15.395 7.89454C15.395 7.45246 15.395 7.01038 15.395 6.5549C15.1695 6.5549 14.9441 6.5549 14.7118 6.5549ZM16.0782 6.5549C16.0782 6.99698 16.0782 7.43906 16.0782 7.89454C16.3037 7.89454 16.5291 7.89454 16.7614 7.89454C16.7614 7.45246 16.7614 7.01038 16.7614 6.5549C16.536 6.5549 16.3105 6.5549 16.0782 6.5549ZM17.4447 6.5549C17.4447 6.99698 17.4447 7.43906 17.4447 7.89454C17.6701 7.89454 17.8956 7.89454 18.1279 7.89454C18.1279 7.45246 18.1279 7.01038 18.1279 6.5549C17.9024 6.5549 17.6769 6.5549 17.4447 6.5549ZM18.8111 6.5549C18.8111 6.99698 18.8111 7.43906 18.8111 7.89454C19.0365 7.89454 19.262 7.89454 19.4943 7.89454C19.4943 7.45246 19.4943 7.01038 19.4943 6.5549C19.2688 6.5549 19.0434 6.5549 18.8111 6.5549ZM3.43875 8.56436C3.43875 8.7854 3.43875 9.00644 3.43875 9.23418C4.11513 9.23418 4.79151 9.23418 5.48839 9.23418C5.48839 9.01314 5.48839 8.7921 5.48839 8.56436C4.81201 8.56436 4.13563 8.56436 3.43875 8.56436ZM11.9362 8.56436C11.8907 8.68942 11.8486 8.81442 11.8081 8.94113C11.793 8.98778 11.7779 9.03443 11.7623 9.08249C11.6197 9.57118 11.6142 10.0383 11.6179 10.544C11.618 10.636 11.618 10.7281 11.6179 10.8202C11.6178 11.0681 11.6188 11.3161 11.62 11.564C11.6211 11.8239 11.6212 12.0837 11.6214 12.3436C11.6219 12.8348 11.6233 13.3259 11.625 13.8171C11.6264 14.2096 11.6273 14.6022 11.6279 14.9947C11.628 15.0225 11.628 15.0502 11.6281 15.0787C11.6283 15.2177 11.6285 15.3568 11.6287 15.4958C11.6305 16.6461 11.6336 17.7963 11.6373 18.9465C12.5955 18.9465 13.5537 18.9465 14.541 18.9465C14.5991 18.8327 14.6039 18.7281 14.6191 18.6015C14.6223 18.5744 14.6256 18.5472 14.629 18.5193C14.64 18.4281 14.6509 18.3369 14.6617 18.2456C14.6695 18.1804 14.6774 18.1151 14.6852 18.0499C14.7022 17.9091 14.7191 17.7684 14.7358 17.6276C14.7624 17.4051 14.7892 17.1826 14.8161 16.9601C14.8925 16.3273 14.9685 15.6944 15.0443 15.0616C15.0861 14.7122 15.1282 14.3629 15.1704 14.0136C15.1972 13.7924 15.2237 13.5712 15.25 13.3499C15.2664 13.2122 15.2831 13.0746 15.2998 12.9369C15.3075 12.8731 15.3151 12.8092 15.3226 12.7454C15.3329 12.6581 15.3435 12.571 15.3542 12.4838C15.363 12.4106 15.363 12.4106 15.3719 12.336C15.3941 12.2116 15.4233 12.1102 15.4804 11.9972C15.6134 11.932 15.7624 11.9317 15.9074 11.9553C16.0393 12.0544 16.0584 12.1426 16.0813 12.3004C16.0879 12.3455 16.0946 12.3905 16.1015 12.4369C16.1079 12.4852 16.1143 12.5335 16.1209 12.5833C16.1306 12.6555 16.1306 12.6555 16.1405 12.7292C16.1613 12.8912 16.181 13.0533 16.2005 13.2154C16.208 13.2772 16.2155 13.339 16.223 13.4008C16.2391 13.5328 16.2551 13.6648 16.271 13.7968C16.2962 14.0054 16.3215 14.214 16.3469 14.4226C16.4099 14.9402 16.4726 15.4578 16.5353 15.9754C16.5841 16.3789 16.6331 16.7825 16.6822 17.186C16.7075 17.3935 16.7326 17.601 16.7576 17.8085C16.7731 17.9372 16.7888 18.0658 16.8045 18.1944C16.8118 18.2542 16.819 18.3139 16.8261 18.3737C16.8359 18.4551 16.8458 18.5364 16.8558 18.6177C16.8641 18.6861 16.8641 18.6861 16.8725 18.7558C16.8838 18.8621 16.8838 18.8621 16.9322 18.9465C17.8904 18.9465 18.8487 18.9465 19.8359 18.9465C19.8417 17.7467 19.8464 16.5468 19.8492 15.347C19.8505 14.7898 19.8523 14.2326 19.8552 13.6753C19.8578 13.1893 19.8594 12.7032 19.86 12.2171C19.8603 11.9601 19.8611 11.7031 19.863 11.4461C19.8647 11.2034 19.8653 10.9607 19.8649 10.7179C19.865 10.6296 19.8654 10.5413 19.8664 10.4531C19.8733 9.81319 19.7882 9.21569 19.5797 8.60622C19.5324 8.55044 19.5324 8.55044 19.413 8.55921C19.357 8.55925 19.301 8.55929 19.2433 8.55933C19.2122 8.55929 19.1812 8.55925 19.1491 8.55922C19.0442 8.55915 18.9393 8.55938 18.8344 8.55961C18.7595 8.55962 18.6846 8.55961 18.6098 8.55959C18.4058 8.55958 18.2018 8.55982 17.9979 8.56011C17.7849 8.56038 17.572 8.5604 17.3591 8.56045C16.9556 8.56058 16.5522 8.56092 16.1487 8.56134C15.6895 8.56181 15.2302 8.56204 14.771 8.56225C13.8261 8.56269 12.8812 8.56343 11.9362 8.56436ZM0.705889 9.56909C0.705889 9.79013 0.705889 10.0112 0.705889 10.2389C1.38227 10.2389 2.05865 10.2389 2.75553 10.2389C2.75553 10.0179 2.75553 9.79683 2.75553 9.56909C2.07915 9.56909 1.40277 9.56909 0.705889 9.56909ZM3.43875 9.904C3.43875 10.3461 3.43875 10.7882 3.43875 11.2436C4.11513 11.2436 4.79151 11.2436 5.48839 11.2436C5.48839 10.8016 5.48839 10.3595 5.48839 9.904C4.81201 9.904 4.13563 9.904 3.43875 9.904ZM11.6373 19.6164C11.6373 19.8374 11.6373 20.0584 11.6373 20.2862C11.9929 20.2871 12.3485 20.2879 12.7041 20.2884C12.8692 20.2886 13.0343 20.2889 13.1994 20.2893C13.3586 20.2898 13.5178 20.29 13.677 20.2902C13.7378 20.2902 13.7987 20.2904 13.8596 20.2906C13.9445 20.2909 14.0295 20.2909 14.1145 20.2909C14.1871 20.2911 14.1872 20.2911 14.2613 20.2912C14.3674 20.2983 14.3674 20.2983 14.4129 20.2443C14.427 20.0371 14.4411 19.8299 14.4556 19.6164C13.5256 19.6164 12.5955 19.6164 11.6373 19.6164ZM17.0176 19.6164C16.9868 19.984 16.9868 19.984 17.103 20.2862C17.1882 20.2901 17.2735 20.2911 17.3588 20.2909C17.4408 20.2909 17.4408 20.2909 17.5245 20.2909C17.5847 20.2907 17.6449 20.2905 17.705 20.2903C17.7662 20.2902 17.8274 20.2901 17.8887 20.2901C18.05 20.2899 18.2114 20.2895 18.3728 20.2891C18.5374 20.2886 18.702 20.2884 18.8665 20.2882C19.1897 20.2878 19.5128 20.287 19.8359 20.2862C19.8359 20.0651 19.8359 19.8441 19.8359 19.6164C18.9059 19.6164 17.9758 19.6164 17.0176 19.6164Z" fill="white"/>
</svg>
