<svg width="40" height="40" viewBox="0 0 40 40" xmlns="http://www.w3.org/2000/svg">
<path d="M20.1413 29.9403C19.8684 29.9403 19.6051 29.8361 19.4006 29.6476C18.5562 28.8714 17.7518 28.1511 17.0427 27.5156L17.0399 27.5127C14.954 25.6445 13.1539 24.0312 11.9036 22.446C10.5148 20.6853 9.86816 19.0176 9.86816 17.1985C9.86816 15.4324 10.4438 13.8038 11.4885 12.6124C12.5439 11.409 13.9923 10.7461 15.5672 10.7461C16.7432 10.7461 17.8201 11.1371 18.7681 11.908C19.2469 12.2971 19.6836 12.7768 20.0665 13.3337L20.1408 13.4417L20.2151 13.3337C20.5986 12.7764 21.0356 12.2971 21.514 11.908C22.4625 11.1371 23.5394 10.7461 24.7149 10.7461C26.2898 10.7461 27.7382 11.409 28.794 12.6124C29.8388 13.8038 30.4139 15.4324 30.4139 17.1985C30.4139 19.0176 29.7673 20.6853 28.3794 22.446C27.1296 24.0312 25.3294 25.644 23.2449 27.5118C22.5716 28.1149 21.7342 28.8651 20.882 29.6481C20.677 29.8366 20.4137 29.9403 20.1413 29.9403ZM15.5672 11.8299C14.2835 11.8299 13.1039 12.3685 12.2458 13.3467C11.3771 14.3375 10.8987 15.7053 10.8987 17.1985C10.8987 18.7726 11.4532 20.1776 12.6966 21.7546C13.8891 23.2676 15.6581 24.8523 17.7064 26.6873L17.7114 26.6917C18.425 27.331 19.2346 28.0561 20.0789 28.8323L20.139 28.8878L20.1995 28.8323C21.0632 28.0421 21.9016 27.2909 22.5758 26.6873L22.5808 26.683C24.6273 24.8494 26.3944 23.2666 27.586 21.7546C28.8293 20.1776 29.3838 18.7721 29.3838 17.1985C29.3838 15.7053 28.9055 14.3375 28.0364 13.3467C27.1782 12.3685 25.9991 11.8294 24.7153 11.8294C23.7733 11.8294 22.9083 12.1443 22.1451 12.7648C21.4681 13.3154 20.9971 14.0101 20.721 14.4961C20.5981 14.7131 20.3812 14.8423 20.1413 14.8423C19.9014 14.8423 19.6849 14.7131 19.5616 14.4961C19.2859 14.0101 18.8149 13.3154 18.1375 12.7648C17.3743 12.1443 16.5093 11.8299 15.5672 11.8299Z" stroke-width="0.5"/>
</svg>
