<?xml version="1.0" encoding="utf-8"?><svg width="40" height="40" xmlns="http://www.w3.org/2000/svg" viewBox="0 0 40 40"><path d="M20.141 29.94c-.273 0-.536-.104-.74-.292-.845-.777-1.65-1.497-2.358-2.132l-.003-.003c-2.086-1.869-3.886-3.482-5.136-5.067-1.39-1.76-2.036-3.428-2.036-5.248 0-1.766.576-3.394 1.62-4.586 1.056-1.203 2.504-1.866 4.08-1.866 1.175 0 2.252.391 3.2 1.162.479.39.916.869 1.299 1.426l.074.108.074-.108a6.79 6.79 0 011.299-1.426c.948-.77 2.025-1.162 3.2-1.162 1.576 0 3.024.663 4.08 1.866 1.045 1.192 1.62 2.82 1.62 4.586 0 1.82-.647 3.487-2.035 5.248-1.25 1.585-3.05 3.198-5.134 5.066-.673.603-1.51 1.353-2.363 2.136a1.094 1.094 0 01-.74.292zm-4.574-18.11a4.367 4.367 0 00-3.321 1.517c-.869.99-1.347 2.358-1.347 3.851 0 1.575.554 2.98 1.798 4.557 1.192 1.513 2.961 3.097 5.01 4.932l.004.005c.714.639 1.524 1.364 2.368 2.14l.06.056.06-.056a294.88 294.88 0 012.377-2.145l.005-.004c2.046-1.834 3.813-3.416 5.005-4.928 1.243-1.577 1.798-2.983 1.798-4.556 0-1.494-.479-2.862-1.348-3.852a4.366 4.366 0 00-3.32-1.518c-.943 0-1.808.315-2.57.936-.678.55-1.149 1.245-1.425 1.731a.663.663 0 01-.58.346.664.664 0 01-.58-.346c-.275-.486-.746-1.18-1.424-1.731-.763-.62-1.628-.935-2.57-.935z"/></svg>