<?xml version="1.0" encoding="utf-8"?><svg viewBox="0 0 60 68" xmlns="http://www.w3.org/2000/svg" xmlns:xlink="http://www.w3.org/1999/xlink"><style>:root>svg{display:none}:root>svg:target{display:block}</style><svg viewBox="0 0 40 41" id="ic_arr-left" xmlns="http://www.w3.org/2000/svg"><path d="M24.111 28.06a.863.863 0 01-1.24-.044L16.8 21.349a.917.917 0 010-1.228l6.07-6.667a.863.863 0 011.241-.044c.355.34.374.909.043 1.272l-5.511 6.053 5.51 6.052a.916.916 0 01-.042 1.272z"/></svg><svg viewBox="0 0 41 40" id="ic_arr-right" xmlns="http://www.w3.org/2000/svg"><path d="M16.286 12.242a.9.9 0 011.272.044l6.222 6.667a.9.9 0 010 1.228l-6.222 6.666a.9.9 0 01-1.316-1.228l5.65-6.052-5.65-6.053a.9.9 0 01.044-1.272z"/></svg><svg viewBox="0 0 20 20" id="ic_arrow-down" xmlns="http://www.w3.org/2000/svg"><path fill-rule="evenodd" clip-rule="evenodd" d="M9.882 13.943L4 8.06 5.06 7l5.883 5.882-1.061 1.06z"/><path fill-rule="evenodd" clip-rule="evenodd" d="M9.889 13.945l5.885-5.884L14.713 7l-5.885 5.885 1.06 1.06z"/></svg><svg viewBox="0 0 24 24" id="ic_arrow-left" xmlns="http://www.w3.org/2000/svg"><path fill-rule="evenodd" clip-rule="evenodd" d="M9.854 5.146a.5.5 0 010 .708L3.707 12H22.5a.5.5 0 010 1H3.707l6.147 6.146a.5.5 0 01-.708.708l-7-7a.5.5 0 010-.708l7-7a.5.5 0 01.708 0z"/></svg><svg viewBox="0 0 24 24" id="ic_arrow-right" xmlns="http://www.w3.org/2000/svg"><path fill-rule="evenodd" clip-rule="evenodd" d="M15.146 5.146a.5.5 0 01.708 0l7 7a.5.5 0 010 .708l-7 7a.5.5 0 01-.708-.708L21.293 13H2.5a.5.5 0 010-1h18.793l-6.147-6.146a.5.5 0 010-.708z"/></svg><svg viewBox="0 0 40 40" id="ic_cart" xmlns="http://www.w3.org/2000/svg"><path fill-rule="evenodd" clip-rule="evenodd" d="M5.706 10.648a.75.75 0 01.75-.75H10a.75.75 0 01.714.52l1.158 3.606h21.236a.75.75 0 01.7 1.017l-2.358 6.192a.75.75 0 01-1.402-.534l1.972-5.175H12.355l2.52 7.842 10.119 1.361a.75.75 0 01-.2 1.487L14.207 24.79a.75.75 0 01-.614-.514l-4.14-12.878H6.456a.75.75 0 01-.75-.75z"/><path fill-rule="evenodd" clip-rule="evenodd" d="M14.508 23.37a.75.75 0 01.493.939l-1.432-.446a.75.75 0 01.94-.493zm-.939.493l-.116.374a222.973 222.973 0 00-.98 3.219c-.29.983.103 1.933.919 2.384.813.45 1.861.317 2.768-.395.68-.535 1.453-1.145 2.219-1.752.877-.694 1.746-1.382 2.464-1.944a.75.75 0 10-.924-1.181c-.713.558-1.595 1.255-2.48 1.955-.768.609-1.54 1.22-2.206 1.742-.54.425-.94.36-1.115.263-.172-.095-.308-.307-.207-.648a222.234 222.234 0 01.974-3.198l.116-.373-1.432-.446zM29.281 21.574a3.513 3.513 0 100 7.026 3.513 3.513 0 000-7.026zm-5.013 3.513a5.013 5.013 0 1110.026 0 5.013 5.013 0 01-10.026 0z"/></svg><svg viewBox="0 0 22 22" id="ic_catalog" xmlns="http://www.w3.org/2000/svg"><path d="M6.417 2.75a3.667 3.667 0 100 7.333 3.667 3.667 0 000-7.333zM8.25 6.417a1.833 1.833 0 11-3.667 0 1.833 1.833 0 013.667 0zm-1.833 5.5a3.667 3.667 0 100 7.333 3.667 3.667 0 000-7.333zm1.833 3.666a1.833 1.833 0 11-3.667 0 1.833 1.833 0 013.667 0zM15.583 2.75a3.667 3.667 0 100 7.333 3.667 3.667 0 000-7.333zm1.834 3.667a1.833 1.833 0 11-3.667 0 1.833 1.833 0 013.667 0zm-1.834 5.5a3.667 3.667 0 100 7.333 3.667 3.667 0 000-7.333zm1.834 3.666a1.833 1.833 0 11-3.667 0 1.833 1.833 0 013.667 0z"/></svg><svg viewBox="0 0 20 20" id="ic_check-small" xmlns="http://www.w3.org/2000/svg"><path fill-rule="evenodd" clip-rule="evenodd" d="M15.7 6.287a1 1 0 01.013 1.414l-6.875 7a1 1 0 01-1.426 0l-3.125-3.182a1 1 0 011.426-1.402l2.412 2.456 6.162-6.274a1 1 0 011.414-.012z"/></svg><svg viewBox="0 0 40 40" id="ic_compare" xmlns="http://www.w3.org/2000/svg"><path fill-rule="evenodd" clip-rule="evenodd" d="M10.097 16.342a.75.75 0 01.923 0l3.558 2.777a.75.75 0 01.289.592v7.881a.75.75 0 01-.75.75H7a.75.75 0 01-.75-.75v-7.881a.75.75 0 01.289-.592l3.558-2.777zM7.75 20.077v6.765h5.617v-6.765l-2.809-2.192-2.808 2.192zM29.812 13.281a.75.75 0 01.923 0l3.558 2.777a.75.75 0 01.289.592v7.881a.75.75 0 01-.75.75h-7.117a.75.75 0 01-.75-.75V16.65a.75.75 0 01.288-.591l3.559-2.778zm-2.347 3.735v6.765h5.617v-6.765l-2.809-2.192-2.808 2.192z"/><path d="M11.813 21.42a1.233 1.233 0 11-2.465 0 1.233 1.233 0 012.465 0zM31.536 18.36a1.233 1.233 0 11-2.466 0 1.233 1.233 0 012.466 0z"/><path fill-rule="evenodd" clip-rule="evenodd" d="M9.539 13.135a.75.75 0 01.605-.871l20.011-3.607a.75.75 0 01.266 1.476L10.41 13.74a.75.75 0 01-.871-.605z"/><path fill-rule="evenodd" clip-rule="evenodd" d="M20.75 30.248a.75.75 0 01-.75-.75V11.575a.75.75 0 011.5 0v17.923a.75.75 0 01-.75.75z"/></svg><svg viewBox="0 0 19 18" id="ic_copy" xmlns="http://www.w3.org/2000/svg"><path fill-rule="evenodd" clip-rule="evenodd" d="M3.65 6.437a2.75 2.75 0 012.75-2.75h3.37a2.75 2.75 0 012.75 2.75v.608h-1.5v-.608c0-.69-.559-1.25-1.25-1.25H6.4c-.69 0-1.25.56-1.25 1.25v3.37c0 .691.56 1.25 1.25 1.25h.887v1.5h-.888a2.75 2.75 0 01-2.75-2.75v-3.37z"/><path fill-rule="evenodd" clip-rule="evenodd" d="M6.696 9.191a2.75 2.75 0 012.75-2.75h3.372a2.75 2.75 0 012.75 2.75v3.372a2.75 2.75 0 01-2.75 2.75H9.446a2.75 2.75 0 01-2.75-2.75V9.19zm2.75-1.25c-.69 0-1.25.56-1.25 1.25v3.372c0 .69.56 1.25 1.25 1.25h3.372c.69 0 1.25-.56 1.25-1.25V9.19c0-.69-.56-1.25-1.25-1.25H9.446z"/></svg><svg viewBox="0 0 20 20" id="ic_cross" xmlns="http://www.w3.org/2000/svg"><path fill-rule="evenodd" clip-rule="evenodd" d="M14.1 15L5 5.9l.901-.9 9.1 9.1-.9.9z"/><path fill-rule="evenodd" clip-rule="evenodd" d="M5.9 15L15 5.9l-.9-.9L5 14.1l.9.9z"/></svg><svg viewBox="0 0 24 24" id="ic_dl" xmlns="http://www.w3.org/2000/svg"><path fill-rule="evenodd" clip-rule="evenodd" d="M3 14a1 1 0 011 1v4a1 1 0 001 1h14a1 1 0 001-1v-4a1 1 0 112 0v4a3 3 0 01-3 3H5a3 3 0 01-3-3v-4a1 1 0 011-1z"/><path fill-rule="evenodd" clip-rule="evenodd" d="M6.293 9.293a1 1 0 011.414 0L12 13.586l4.293-4.293a1 1 0 111.414 1.414l-5 5a1 1 0 01-1.414 0l-5-5a1 1 0 010-1.414z"/><path fill-rule="evenodd" clip-rule="evenodd" d="M12 2a1 1 0 011 1v12a1 1 0 11-2 0V3a1 1 0 011-1z"/></svg><svg fill="none" viewBox="0 0 40 40" id="ic_find" xmlns="http://www.w3.org/2000/svg"><path d="M0 20C0 8.954 8.954 0 20 0s20 8.954 20 20-8.954 20-20 20S0 31.046 0 20z" fill="#fff"/><path fill-rule="evenodd" clip-rule="evenodd" d="M18.758 13.5a5.258 5.258 0 100 10.516 5.258 5.258 0 000-10.516zM12 18.758a6.758 6.758 0 1111.954 4.323l4.247 4.247a.75.75 0 11-1.06 1.06l-4.269-4.268A6.758 6.758 0 0112 18.758z" fill="#131313"/></svg><svg viewBox="0 0 40 40" id="ic_heart" xmlns="http://www.w3.org/2000/svg"><path d="M20.141 29.94c-.273 0-.536-.104-.74-.292-.845-.777-1.65-1.497-2.358-2.132l-.003-.003c-2.086-1.869-3.886-3.482-5.136-5.067-1.39-1.76-2.036-3.428-2.036-5.248 0-1.766.576-3.394 1.62-4.586 1.056-1.203 2.504-1.866 4.08-1.866 1.175 0 2.252.391 3.2 1.162.479.39.916.869 1.299 1.426l.074.108.074-.108a6.79 6.79 0 011.299-1.426c.948-.77 2.025-1.162 3.2-1.162 1.576 0 3.024.663 4.08 1.866 1.045 1.192 1.62 2.82 1.62 4.586 0 1.82-.647 3.487-2.035 5.248-1.25 1.585-3.05 3.198-5.134 5.066-.673.603-1.51 1.353-2.363 2.136a1.094 1.094 0 01-.74.292zm-4.574-18.11a4.367 4.367 0 00-3.321 1.517c-.869.99-1.347 2.358-1.347 3.851 0 1.575.554 2.98 1.798 4.557 1.192 1.513 2.961 3.097 5.01 4.932l.004.005c.714.639 1.524 1.364 2.368 2.14l.06.056.06-.056a294.88 294.88 0 012.377-2.145l.005-.004c2.046-1.834 3.813-3.416 5.005-4.928 1.243-1.577 1.798-2.983 1.798-4.556 0-1.494-.479-2.862-1.348-3.852a4.366 4.366 0 00-3.32-1.518c-.943 0-1.808.315-2.57.936-.678.55-1.149 1.245-1.425 1.731a.663.663 0 01-.58.346.664.664 0 01-.58-.346c-.275-.486-.746-1.18-1.424-1.731-.763-.62-1.628-.935-2.57-.935z"/></svg><svg viewBox="0 0 25 24" id="ic_loupe" xmlns="http://www.w3.org/2000/svg"><path fill-rule="evenodd" clip-rule="evenodd" d="M13.225 4.949a6.16 6.16 0 00-4.44 10.428.986.986 0 01.171.171 6.16 6.16 0 104.269-10.6zm-5.003 12.54a8.108 8.108 0 10-1.378-1.378l-3.225 3.225a.975.975 0 001.378 1.379l3.225-3.226z"/></svg><svg fill="none" viewBox="0 0 60 68" id="ic_pin" xmlns="http://www.w3.org/2000/svg"><g clip-path="url(#pclip0_507_5633)"><g filter="url(#pfilter0_f_507_5633)"><path d="M30.51 56.523a.5.5 0 01-.5.477c-.29 0-.51-.21-.52-.477-.145-3.168-1.756-5.217-4.832-6.147C14.53 47.968 7 38.863 7 28 7 15.297 17.297 5 30 5s23 10.297 23 23c0 10.863-7.53 19.968-17.658 22.376-3.076.93-4.687 2.98-4.83 6.147h-.002z" fill="red"/></g><path d="M30.51 56.523a.5.5 0 01-.5.477c-.29 0-.51-.21-.52-.477-.145-3.168-1.756-5.217-4.832-6.147C14.53 47.968 7 38.863 7 28 7 15.297 17.297 5 30 5s23 10.297 23 23c0 10.863-7.53 19.968-17.658 22.376-3.076.93-4.687 2.98-4.83 6.147h-.002z" fill="red"/><path d="M30 68c-2.21 0-4-1.79-4-4s1.79-4 4-4 4 1.79 4 4-1.79 4-4 4z" fill="#fff"/><path d="M30 66a2 2 0 10.09-3.998A2 2 0 0030 66z" fill="#000"/><path fill-rule="evenodd" clip-rule="evenodd" d="M30 34.2V39h11.4a.6.6 0 00.6-.6V24.6a.6.6 0 00-.6-.6h-4.954l-.158 2H40v1h-3.79l-.159 2H40v1h-4.028l-.373 4.715a.303.303 0 01-.323.284.306.306 0 01-.276-.309V18.4a.4.4 0 00-.4-.4H34v-.6a.4.4 0 00-.4-.4H23.4a.4.4 0 00-.4.4v.6h-.6a.4.4 0 00-.4.4v20a.6.6 0 00.6.6H27v-4.8c0-.11.09-.2.2-.2h2.6c.11 0 .2.09.2.2zM25.5 31v-6h2v6h-2zm4-6v6h2v-6h-2zm-4-2v-3h2v3h-2zm4-3v3h2v-3h-2zM37 33v-1h3v1h-3z" fill="#fff"/><path d="M36.525 23l.08-1h2.994c.22 0 .4.18.4.4v.6h-3.474z" fill="#fff"/></g><defs><clipPath id="pclip0_507_5633"><path fill="#fff" d="M0 0h60v68H0z"/></clipPath><filter id="pfilter0_f_507_5633" x="1" y="-1" width="58" height="64" filterUnits="userSpaceOnUse" color-interpolation-filters="sRGB"><feFlood flood-opacity="0" result="BackgroundImageFix"/><feBlend in="SourceGraphic" in2="BackgroundImageFix" result="shape"/><feGaussianBlur stdDeviation="3" result="effect1_foregroundBlur_507_5633"/></filter></defs></svg><svg fill="none" viewBox="0 0 43 43" id="ic_play" xmlns="http://www.w3.org/2000/svg"><circle opacity=".83" cx="21.355" cy="21.474" r="20.816" fill="#0090C3"/><path d="M26.752 21.78l-8.556 4.94v-9.879l8.556 4.94z" fill="#fff"/></svg><svg viewBox="0 0 16 14" id="ic_tg" xmlns="http://www.w3.org/2000/svg"><path d="M6.279 9.096l-.265 3.723c.379 0 .543-.163.74-.358l1.775-1.697 3.679 2.695c.674.376 1.15.178 1.332-.621l2.415-11.316c.214-.997-.36-1.388-1.018-1.143L.743 5.813c-.969.376-.954.916-.165 1.161l3.629 1.129 8.43-5.274c.396-.263.757-.118.46.145L6.279 9.096z"/></svg><svg viewBox="0 0 40 40" id="ic_to-cart" xmlns="http://www.w3.org/2000/svg"><path fill-rule="evenodd" clip-rule="evenodd" d="M7.25 13a.75.75 0 01.75-.75h4.355a.75.75 0 01.714.52l3.3 10.265 7.27.978a4.16 4.16 0 014.765-3.577l1.583-5.492H17.92a.75.75 0 010-1.5h13.065a.75.75 0 01.72.958l-1.881 6.53a4.16 4.16 0 11-6.099 4.606l-4.319-.581a.754.754 0 01-.093.136c-.386.45-.85.998-1.32 1.552-.41.485-.825.973-1.192 1.403-.264.309-.595.552-.989.632a1.303 1.303 0 01-1.1-.277c-.548-.452-.7-1.24-.562-1.937a250.18 250.18 0 01.527-2.573l.062-.3a.749.749 0 01.138-.302L11.81 13.75H8a.75.75 0 01-.75-.75zm8.83 11.51a507.756 507.756 0 00-.459 2.247.893.893 0 00-.004.363l.042-.046 1.182-1.39c.278-.33.556-.658.816-.962l-1.578-.213zm5.95-8.15a.75.75 0 01.75.75v1.37h1.487a.75.75 0 010 1.5h-1.488v1.271a.75.75 0 01-1.5 0v-1.27h-1.676a.75.75 0 010-1.5h1.676V17.11a.75.75 0 01.75-.75zm5.735 5.527a2.66 2.66 0 100 5.319 2.66 2.66 0 000-5.319z"/></svg><svg viewBox="0 0 16 13" id="ic_tw" xmlns="http://www.w3.org/2000/svg"><path d="M16 1.543a6.872 6.872 0 01-1.645 1.696 9.368 9.368 0 01-.376 3.066 9.453 9.453 0 01-1.177 2.517 9.91 9.91 0 01-1.868 2.143c-.724.615-1.597 1.11-2.62 1.482a9.666 9.666 0 01-3.278.548A9.106 9.106 0 010 11.523c.237.027.5.04.792.04a6.42 6.42 0 004.07-1.4 3.214 3.214 0 01-1.908-.65 3.235 3.235 0 01-1.157-1.625c.223.034.43.051.62.051.29 0 .578-.037.862-.112a3.259 3.259 0 01-1.888-1.126A3.201 3.201 0 01.65 4.609v-.04c.46.257.954.395 1.482.416a3.275 3.275 0 01-1.066-1.168A3.195 3.195 0 01.67 2.254c0-.596.149-1.147.447-1.655a9.373 9.373 0 002.985 2.426A9.22 9.22 0 007.878 4.03a3.643 3.643 0 01-.081-.75c0-.908.318-1.68.954-2.316A3.169 3.169 0 0111.076 0c.948 0 1.746.345 2.396 1.036a6.43 6.43 0 002.081-.792 3.184 3.184 0 01-1.441 1.807A6.534 6.534 0 0016 1.543z"/></svg><svg viewBox="0 0 40 40" id="ic_user" xmlns="http://www.w3.org/2000/svg"><path fill-rule="evenodd" clip-rule="evenodd" d="M20.126 9.163h.009c1.73 0 3.39.692 4.612 1.922a6.568 6.568 0 011.865 3.883h.909a.75.75 0 110 1.5h-.909a6.568 6.568 0 01-1.866 3.883 6.503 6.503 0 01-4.612 1.921m4.965-5.804a5.067 5.067 0 01-1.416 2.826 5.003 5.003 0 01-3.549 1.478 5.002 5.002 0 01-3.548-1.478 5.067 5.067 0 01-1.416-2.826h9.93zm0-1.5h-9.93a5.068 5.068 0 011.37-2.778v.887a.75.75 0 101.5 0v-1.953a4.997 4.997 0 011.334-.402v2.354a.75.75 0 101.5 0v-2.358c.463.07.912.203 1.335.396v1.963a.75.75 0 101.5 0v-.91a5.068 5.068 0 011.392 2.8zm-4.981-5.805a6.504 6.504 0 00-4.596 1.921 6.568 6.568 0 00-1.865 3.884h-.909a.75.75 0 100 1.5h.909a6.568 6.568 0 001.865 3.883 6.502 6.502 0 004.612 1.921m-.008-13.109h-.008m.084 16.69c-3.808 0-6.798 1.664-7.726 3.666a.75.75 0 11-1.36-.631c1.271-2.744 4.971-4.535 9.086-4.535 4.117 0 7.785 1.775 9.069 4.496a.75.75 0 11-1.357.64c-.937-1.988-3.903-3.636-7.712-3.636z"/></svg><svg viewBox="0 0 20 20" id="ic_vb" xmlns="http://www.w3.org/2000/svg"><path d="M17.745 1.948c-.524-.457-2.64-1.914-7.36-1.934 0 0-5.565-.316-8.276 2.043C.602 3.487.07 5.584.013 8.18c-.058 2.597-.128 7.464 4.819 8.784h.004l-.004 2.015s-.033.817.535.98c.684.204 1.088-.417 1.743-1.085.358-.367.852-.906 1.227-1.316 3.386.27 5.985-.348 6.281-.438.684-.21 4.552-.68 5.178-5.546.65-5.023-.313-8.194-2.051-9.627zm.572 9.26c-.531 4.062-3.666 4.32-4.242 4.496-.247.074-2.534.613-5.404.437 0 0-2.142 2.449-2.81 3.086-.218.207-.457.187-.452-.223 0-.27.016-3.347.016-3.347-.004 0-.004 0 0 0-4.193-1.102-3.946-5.246-3.9-7.413.045-2.168.477-3.945 1.754-5.14 2.294-1.973 7.019-1.68 7.019-1.68 3.99.016 5.902 1.156 6.347 1.539 1.47 1.195 2.22 4.054 1.672 8.245zm-5.725-3.156c.016.336-.515.36-.532.024-.045-.86-.469-1.278-1.342-1.324-.354-.02-.322-.524.029-.504 1.149.058 1.787.683 1.845 1.804zm.836.442c.041-1.656-1.05-2.953-3.122-3.098-.35-.023-.313-.527.037-.504 2.389.164 3.662 1.723 3.616 3.613-.004.336-.54.32-.531-.011zm1.936.523c.004.336-.532.34-.532.004-.024-3.183-2.26-4.918-4.975-4.937-.35-.004-.35-.504 0-.504 3.036.02 5.478 2.008 5.507 5.437zm-.466 3.832v.007c-.444.742-1.276 1.563-2.133 1.3l-.008-.01c-.87-.231-2.917-1.231-4.21-2.208-.667-.5-1.277-1.09-1.746-1.656a12.643 12.643 0 01-1.269-1.82c-.877-1.503-1.07-2.175-1.07-2.175-.277-.813.584-1.602 1.37-2.023h.009c.379-.188.741-.125.984.152 0 0 .511.578.73.863.205.266.481.691.626.93.25.425.094.859-.153 1.039l-.494.375c-.251.19-.218.546-.218.546s.733 2.629 3.472 3.293c0 0 .375.031.576-.207l.396-.469c.19-.234.646-.383 1.095-.144.606.324 1.376.828 1.887 1.285.288.222.354.562.156.921z"/></svg><svg viewBox="0 0 19 11" id="ic_vk" xmlns="http://www.w3.org/2000/svg"><path d="M17.57 8.059c-.393-.414-.84-.785-1.27-1.143-.154-.128-.313-.26-.466-.39-.438-.377-.454-.519-.107-.947.24-.295.495-.59.742-.876.224-.26.455-.527.677-.796l.045-.055c.424-.515.862-1.047 1.095-1.689.06-.17.124-.418-.021-.627-.145-.208-.427-.272-.627-.301a1.946 1.946 0 00-.287-.017l-2.774-.002h-.023c-.42 0-.702.174-.864.53a13.74 13.74 0 01-.519 1.05c-.385.688-.875 1.48-1.584 2.141l-.03.028c-.084.08-.179.169-.248.169a.133.133 0 01-.035-.006c-.147-.05-.246-.362-.241-.507v-.006L11.03 1.8l-.003-.03c-.07-.457-.226-.742-.817-.843a.278.278 0 00-.048-.004H7.278c-.47 0-.729.168-.972.419-.066.067-.202.206-.135.376.07.172.292.208.365.22.361.06.564.254.622.593.1.588.113 1.216.039 1.975a1.49 1.49 0 01-.129.514c-.015.032-.07.138-.127.138-.018 0-.07-.006-.165-.063-.224-.135-.387-.327-.578-.564A12.863 12.863 0 014.53 1.817a.986.986 0 00-.92-.592c-.46-.006-.878-.01-1.276-.01-.435 0-.839.004-1.232.012-.337.005-.57.093-.693.263s-.115.394.024.664C1.544 4.32 2.55 5.896 3.697 7.261c.804.956 1.61 1.618 2.536 2.082.977.49 2.071.729 3.345.729.145 0 .294-.003.445-.01.74-.031 1.015-.266 1.05-.9.016-.323.057-.662.238-.951.114-.183.22-.183.256-.183.067 0 .151.028.241.079.161.092.3.216.413.324l.317.31c.228.224.464.456.71.675.538.481 1.132.693 1.813.647h2.56a.755.755 0 00.602-.34c.16-.248.157-.564-.008-.847a4.587 4.587 0 00-.645-.817z"/></svg><svg viewBox="0 0 16 17" id="ic_wa" xmlns="http://www.w3.org/2000/svg"><path d="M9.719 9.385c.27-.34.451-.51.541-.51.09 0 .428.153 1.01.458.591.306.904.49.938.552.014.035.021.087.021.157 0 .229-.059.493-.177.791-.111.271-.358.5-.74.688-.381.18-.736.27-1.062.27-.396 0-1.056-.215-1.98-.645a5.945 5.945 0 01-1.77-1.23C6 9.41 5.486 8.768 4.958 7.99c-.5-.743-.746-1.417-.74-2.021v-.084c.022-.632.279-1.18.772-1.645a.788.788 0 01.541-.23c.042 0 .104.007.188.021.083.007.15.01.198.01.132 0 .222.025.27.074.056.041.112.135.167.28.056.14.17.445.344.918.174.472.26.732.26.78 0 .147-.121.348-.364.605-.236.25-.354.41-.354.48 0 .048.017.1.052.155.236.507.59.983 1.062 1.427.39.368.913.72 1.573 1.053.083.048.16.072.23.072.103 0 .29-.166.562-.5zm-1.573 5.01a6.33 6.33 0 002.531-.52 6.581 6.581 0 002.094-1.396 6.613 6.613 0 001.396-2.083c.347-.813.52-1.66.52-2.542a6.33 6.33 0 00-.52-2.531 6.582 6.582 0 00-1.396-2.094 6.581 6.581 0 00-2.094-1.396 6.329 6.329 0 00-2.531-.52c-.882 0-1.73.173-2.542.52-.805.348-1.5.813-2.083 1.396a6.582 6.582 0 00-1.396 2.094 6.329 6.329 0 00-.52 2.531c0 1.41.416 2.688 1.25 3.833l-.824 2.428 2.521-.803a6.406 6.406 0 003.594 1.084zM5.094.626A7.669 7.669 0 018.146 0c1.062 0 2.076.208 3.041.625a7.918 7.918 0 012.51 1.677 7.918 7.918 0 011.678 2.51c.417.966.625 1.98.625 3.042 0 1.063-.208 2.08-.625 3.052a7.947 7.947 0 01-1.677 2.5 7.916 7.916 0 01-2.51 1.677 7.594 7.594 0 01-3.042.625 7.735 7.735 0 01-3.802-.979L0 16.125l1.417-4.219A7.666 7.666 0 01.292 7.854c0-1.062.208-2.076.625-3.042a7.917 7.917 0 011.677-2.51 7.948 7.948 0 012.5-1.677z"/></svg></svg>